<svg xmlns="http://www.w3.org/2000/svg" viewBox="0 0 1364 960"><path fill="#d6e8ff" d="M97.423 493.973c.473-19.334 12.871-365.439 207.164-415.73C461.34 37.669 552.871 237.164 834.899 241.846c175.248 2.909 247.943-72.328 333.663-23.872 127.566 72.111 76.633 300.953 73.216 315.465-9.557 40.587-62.123 234.771-236.024 289.57-135.162 42.593-191.448-46.972-399.048-29.46-204.182 17.222-253.341 112.6-352.008 79.493C92.819 818.724 96.814 518.927 97.423 493.973z" class="colorD6E8FF svgShape"/><path fill="#bbd3f0" d="m960.429 457.548 11.517 9.796-6.016 7.067 14.134.186 2.201 13.719 6.021-7.073 65.091 55.363c4.873 4.145 12.184 3.555 16.329-1.319l104.692-123.086c4.145-4.873 3.555-12.184-1.318-16.329l-.739-.628a.022.022 0 0 1-.005-.004l-99.106-84.295a2.525 2.525 0 0 0-3.56.288l-2.376 2.793a8.115 8.115 0 0 0-1.461 1.333l-.309.364-.001.001-61.853 72.74-30.488 35.854-.005.006-.04.046-14.047 16.52a8.865 8.865 0 0 0-.731 1c-.015.024-.026.05-.04.074l-.036.051c-.037.063-.061.13-.096.194-.048.088-.098.175-.142.264l-.001-.001v.001l-.012.026a8.942 8.942 0 0 0-.146.314c-.019.043-.041.084-.059.127a2.867 2.867 0 0 0-.124.313l-.026.068c-.009.026-.022.051-.032.077a.247.247 0 0 0-.01.029l-.011.039c-2.388 4.673-1.366 10.535 2.805 14.082zM450.556 279.194c.355.253.78.338 1.178.271s.772-.286 1.025-.642a1.58 1.58 0 0 0-.371-2.203l-14.925-10.625a34.073 34.073 0 0 0 1.074-15.851l-1.286-7.64a31.587 31.587 0 0 0-1.386-5.314c.203.05.418.061.637.024l12.167-2.048a1.58 1.58 0 0 0-.525-3.116l-12.167 2.049a1.568 1.568 0 0 0-1.063.708c-5.716-12.693-19.445-20.457-33.816-18.038l-27.801 4.68c-10.129 1.705-17.332 10.38-17.549 20.284l-.689-.356c-4.189-2.164-8.747-2.914-13.181-2.168l-1.98.333c-3.999.673-7.741 2.556-10.821 5.446l-2.261 2.122c-3.29-9.562-13.08-15.635-23.381-13.901l-27.801 4.68c-14.184 2.388-24.523 13.945-25.988 27.576l-10.522 1.771c-.86.145-1.44.96-1.296 1.82.145.86.96 1.44 1.82 1.296l9.819-1.653a31.636 31.636 0 0 0 .431 5.343l1.286 7.639a34.05 34.05 0 0 0 7.564 16.353l-9.043 12.704a1.58 1.58 0 1 0 2.574 1.832l8.663-12.17c7.557 7.419 18.434 11.244 29.675 9.352 21.673-3.648 37.277-21.775 38.602-42.803.819.754 1.692 1.129 2.538.987 2.455-.413 3.737-4.959 2.863-10.152-.852-5.061-3.436-8.857-5.839-8.666l2.217-2.081c2.675-2.51 5.913-4.143 9.366-4.725l1.979-.333c3.829-.644 7.78.01 11.425 1.894l2.173 1.122c.008.062.013.123.022.185-.567-.324-1.146-.466-1.712-.371-2.455.413-3.737 4.959-2.863 10.152.874 5.194 3.574 9.069 6.029 8.656 1.004-.169 1.807-1.036 2.351-2.348 7.987 19.731 28.837 31.989 50.697 28.309 12.001-2.02 21.476-10.061 25.872-20.504l14.219 10.12zM1039.723 607.63c-46.638-7.96-90.904 23.4-98.868 70.061-7.523 44.076 20.083 86.049 62.506 97.219a82.86 82.86 0 0 0 7.531 1.645c28.616 4.884 56.331-5.027 75.317-24.167 11.984-12.093 20.495-27.845 23.571-45.867 7.964-46.661-23.395-90.927-70.057-98.891zM894.733 351.308l-10.427-.018c-1.966-9.289-4.422-14.207-4.422-14.207l-19.823-.065c-4.14-16.688-19.2-29.072-37.172-29.103l-30.267-.052.226-130.438a4.02 4.02 0 0 0-4.012-4.026l-228.3-.396a4.02 4.02 0 0 0-4.026 4.012l-.226 130.438-30.267-.052c-17.972-.031-33.074 12.301-37.272 28.974l-19.823-.004s-2.473 4.909-4.472 14.192l-10.427-.018c-1.284.683-15.133 8.51-16.121 23.486-.705 10.749 5.461 21.067 16.034 26.883l10.503.018c1.411 6.554 3.061 10.942 3.915 12.958-9.908.344-17.849 8.454-17.866 18.449l-.121 70.056.269.001a48.974 48.974 0 0 0-.395 6.031l-.285 164.178c-.047 26.92 21.739 48.781 48.659 48.828l350.243.607c26.92.047 48.781-21.738 48.828-48.659l.285-164.177a49.428 49.428 0 0 0-.374-6.033h.269l.121-70.056c.017-9.996-7.896-18.133-17.802-18.511.861-2.013 2.526-6.396 3.959-12.945l10.503.018c10.593-5.78 16.795-16.076 16.127-26.828-.937-14.979-14.759-22.854-16.041-23.541zM331.614 482.233l-4.453 1.877-1.511-3.584-57.067 24.055-19.84-27.975-3.048 2.161-2.853-4.022-112.269 79.621 112.875 159.159.198-.141 7.939 24.045 2.445-.808.825 2.498 116.638-38.507-7.048-21.349 42.643-17.975zM1194.609 454.411l-14.308 8.123-27.804 34.489-.393.487-50.159 62.221a4.027 4.027 0 0 0 .608 5.663l3.135 2.528a4.027 4.027 0 0 0 5.663-.608l2.022-2.508.555-.688 3.489-4.328 1.254 1.011 1.881 1.517 20.979-26.024a1.205 1.205 0 0 0-1.58-1.778c-.017-.017-.029-.037-.049-.052-.346-.279-.966-.084-1.385.435-.418.519-.477 1.167-.131 1.446l-18.198 22.575-1.254-1.011 42.174-52.315.795-.986 27.803-34.489 4.903-15.708z" class="colorBBD3F0 svgShape"/><path fill="#ffffff" d="M350.779 376.351c-.019-.005-.035-.012-.053-.017-1.347-.741-2.754-1.346-3.941-2.35-1.39-1.176-2.553-2.616-3.711-4.013-2.408-2.905-4.932-6.151-8.703-7.267-5.195-1.539-9.95 1.719-12.489 6.102-2.449 4.23-2.546 9.093-3.523 13.745-2.262-1.778-4.527-3.553-6.792-5.328-2.391-1.874-5.446-4.168-8.318-1.703-2.365 2.03-2.062 5.599-2.068 8.388-.005 2.457-.023 4.918-.015 7.377-3.057-2.722-6.061-5.514-9.089-8.253-2.996-2.71-7.161-8.003-11.79-6.967-2.179.488-3.386 2.364-4.408 4.182a37.995 37.995 0 0 0-2.909 6.527 40.387 40.387 0 0 0-1.6 6.474c-.204 1.281-.47 2.985-.388 4.533-.158-.342-.272-.701-.293-.972-.017-.213-.344-.206-.37 0-.188 1.434.446 2.353 1.288 3.443.463.599 1.248.361 1.575-.215.867-1.525.749-3.776 1.067-5.501.355-1.928.788-3.817 1.424-5.675a37.572 37.572 0 0 1 2.229-5.206c.738-1.415 1.929-4.421 3.906-4.058 1.776.326 3.36 2.271 4.61 3.43 1.618 1.501 3.245 2.991 4.867 4.487 3.452 3.182 7.048 6.262 10.372 9.576 1.103 1.1 3.499.954 3.614-.984.189-3.183.184-6.376.233-9.564.021-1.368.037-2.736.063-4.104.017-.869-.131-2.345.382-3.134.409-.628.659-.176 1.31.321 1.165.891 2.294 1.832 3.439 2.749 2.525 2.022 5.041 4.056 7.581 6.06 1.125.888 3.093.456 3.577-.967 1.744-5.127 1.245-11.075 3.754-15.915 1.738-3.353 5.359-6.072 8.971-3.673 2.791 1.854 4.514 4.996 6.618 7.521 2.343 2.812 5.713 5.749 9.601 4.557 1.549-.474 1.551-3.151-.021-3.606zM461.847 745.849c-.017-.01-.03-.021-.046-.031-1.091-1.082-2.278-2.051-3.144-3.342-1.014-1.512-1.736-3.217-2.466-4.878-1.517-3.454-3.053-7.268-6.372-9.378-4.573-2.906-10.039-1.08-13.684 2.437-3.517 3.394-4.945 8.044-7.162 12.249-1.687-2.331-3.377-4.66-5.068-6.988-1.784-2.459-4.092-5.504-7.53-3.922-2.832 1.302-3.52 4.818-4.292 7.498-.679 2.361-1.372 4.722-2.041 7.09-2.191-3.457-4.314-6.966-6.473-10.432-2.137-3.428-4.688-9.662-9.423-9.937-2.23-.13-3.905 1.343-5.387 2.811a38.018 38.018 0 0 0-4.589 5.477 40.385 40.385 0 0 0-3.317 5.786c-.547 1.176-1.272 2.742-1.618 4.253-.058-.372-.069-.748-.015-1.015.042-.209-.274-.292-.356-.101-.574 1.327-.217 2.384.293 3.664.28.703 1.101.689 1.574.226 1.253-1.229 1.758-3.425 2.537-4.996.871-1.756 1.806-3.454 2.928-5.066a37.646 37.646 0 0 1 3.573-4.394c1.098-1.158 3.069-3.721 4.87-2.829 1.618.801 2.607 3.106 3.491 4.564 1.143 1.887 2.298 3.767 3.448 5.651 2.445 4.007 5.057 7.957 7.343 12.057.759 1.361 3.103 1.879 3.746.046 1.056-3.009 1.928-6.081 2.851-9.132.396-1.31.787-2.621 1.188-3.929.255-.831.518-2.291 1.228-2.908.565-.492.682.012 1.171.669.875 1.177 1.703 2.392 2.552 3.588 1.873 2.637 3.733 5.285 5.625 7.909.838 1.163 2.849 1.288 3.705.053 3.085-4.451 4.238-10.307 7.981-14.272 2.592-2.747 6.821-4.367 9.635-1.069 2.174 2.549 2.968 6.044 4.298 9.049 1.481 3.347 3.915 7.097 7.98 7.018 1.615-.033 2.352-2.606.966-3.476zM996.118 293.411c-.017-.01-.03-.021-.046-.031-1.091-1.082-2.278-2.051-3.144-3.342-1.014-1.512-1.737-3.217-2.466-4.878-1.517-3.454-3.053-7.269-6.372-9.378-4.573-2.906-10.039-1.08-13.684 2.437-3.517 3.394-4.945 8.044-7.162 12.249-1.687-2.331-3.377-4.66-5.068-6.988-1.784-2.459-4.092-5.504-7.53-3.922-2.832 1.303-3.52 4.818-4.292 7.498-.679 2.361-1.372 4.722-2.041 7.09-2.192-3.457-4.314-6.966-6.473-10.432-2.137-3.428-4.688-9.662-9.423-9.937-2.23-.13-3.905 1.343-5.387 2.811a38.018 38.018 0 0 0-4.589 5.477 40.385 40.385 0 0 0-3.317 5.786c-.547 1.176-1.272 2.741-1.618 4.253-.058-.372-.069-.748-.015-1.015.042-.209-.274-.292-.356-.101-.574 1.327-.217 2.384.293 3.664.28.703 1.101.689 1.574.226 1.253-1.229 1.758-3.425 2.537-4.996.871-1.756 1.806-3.454 2.928-5.066a37.646 37.646 0 0 1 3.573-4.394c1.098-1.158 3.069-3.721 4.87-2.829 1.618.801 2.607 3.106 3.491 4.564 1.143 1.887 2.298 3.767 3.448 5.651 2.445 4.007 5.057 7.957 7.343 12.057.759 1.361 3.103 1.879 3.746.046 1.056-3.009 1.928-6.08 2.851-9.132.396-1.31.787-2.621 1.188-3.929.255-.831.518-2.291 1.228-2.908.565-.492.682.012 1.171.669.875 1.176 1.703 2.392 2.552 3.588 1.873 2.637 3.734 5.285 5.625 7.909.838 1.163 2.849 1.288 3.705.053 3.085-4.451 4.238-10.308 7.981-14.272 2.592-2.746 6.821-4.367 9.635-1.069 2.174 2.549 2.968 6.044 4.298 9.049 1.481 3.347 3.915 7.097 7.98 7.018 1.615-.034 2.352-2.607.966-3.476z" class="colorFFF svgShape"/><path fill="#d94559" d="m1059.937 515.127-91.76-78.047c-5.202-4.424-5.832-12.228-1.408-17.429l109.944-129.262a2.696 2.696 0 0 1 3.8-.307l99.125 84.311c5.202 4.424 5.832 12.228 1.408 17.429l-103.68 121.897c-4.424 5.202-12.227 5.833-17.429 1.408z" class="colorD94559 svgShape"/><path fill="#ffffff" d="M1073.674 511.274c-2.9 3.416-8.037 3.815-11.468.894l-95.005-80.788-.009-.007a9.576 9.576 0 0 1-.311-.28c-.092-.086-.18-.168-.265-.255l-.205-.219c-.054-.069-.117-.137-.175-.201a8.073 8.073 0 0 1-.828-1.183c-.056-.093-.11-.198-.162-.295a8.608 8.608 0 0 1-.418-.94 7.378 7.378 0 0 1-.285-.946c-.025-.111-.054-.219-.072-.33a4.566 4.566 0 0 1-.055-.324 9.605 9.605 0 0 1-.046-.308 9.304 9.304 0 0 1-.04-1.357c.007-.106.014-.22.025-.33.011-.11.026-.225.037-.335.019-.111.034-.217.054-.328.019-.111.043-.218.065-.333.068-.323.165-.641.275-.954l.01-.029c.185-.519.42-1.025.714-1.508.219-.345.458-.679.731-1l14.047-16.52 92.386-108.646c2.905-3.413 8.037-3.815 11.472-.899l95.005 80.789a8.05 8.05 0 0 1 1.276 1.381l.001-.001.027.039a8.112 8.112 0 0 1 .535.827c.113.194.219.396.306.604.049.101.094.207.135.309.083.212.161.421.231.638.029.107.062.218.092.325.029.107.054.219.079.322.05.215.093.438.12.663l.04.333c.009.113.019.225.024.334.005.109.01.218.011.331.001.113.003.227 0 .336-.003.109-.01.224-.017.337a7.569 7.569 0 0 1-.128.998c-.024.107-.043.218-.07.329-.023.107-.055.215-.086.322a8.317 8.317 0 0 1-.665 1.647c-.046.081-.084.16-.134.237a6.08 6.08 0 0 1-.174.293l-.162.243a7.657 7.657 0 0 1-.219.292 9.042 9.042 0 0 1-.261.324l-106.438 125.169z" class="colorFFF svgShape"/><path fill="#d94559" d="M1072.967 502.751c-2.913 3.422-8.052 3.833-11.487.916l-95.005-80.789a8.36 8.36 0 0 1-1.277-1.379c-.077.152-.15.308-.218.467.128-.313.282-.623.457-.925l.152-.215 14.747-17.483 92.652-108.959c2.913-3.422 8.052-3.833 11.487-.916l95.005 80.789.015.013a2.138 2.138 0 0 1 .251 3.015 1090350.322 1090350.322 0 0 0-106.779 125.466z" class="colorD94559 svgShape"/><path fill="#9996fa" d="M1073.674 511.274c-2.9 3.416-8.037 3.815-11.468.894l-95.005-80.788-.009-.007a9.576 9.576 0 0 1-.311-.28c-.092-.086-.18-.168-.265-.255l-.205-.219c-.054-.069-.117-.137-.175-.201a8.073 8.073 0 0 1-.828-1.183c-.056-.093-.11-.198-.162-.295a8.608 8.608 0 0 1-.418-.94 7.853 7.853 0 0 1-.285-.946c-.025-.111-.054-.219-.072-.33a4.566 4.566 0 0 1-.055-.324 9.605 9.605 0 0 1-.046-.308 9.304 9.304 0 0 1-.04-1.357c.007-.106.014-.22.025-.33.011-.11.026-.225.037-.335.019-.111.034-.217.054-.328l.025-.136c.021-.087.038-.177.059-.264.02-.103.048-.206.076-.309.028-.104.06-.203.092-.303.028-.103.064-.199.1-.304.02-.05.036-.096.057-.146a7.637 7.637 0 0 1 .341-.779c.369.494.785.96 1.277 1.379l95.005 80.789c3.435 2.917 8.567 2.514 11.472-.899l106.433-125.166a7.88 7.88 0 0 0 1.047-1.583c.096.126.183.253.271.388.103.162.201.32.291.479.113.194.219.396.306.604.049.101.094.207.135.309.083.212.161.421.231.638.029.107.062.218.092.325.029.107.054.219.079.322.05.215.093.438.12.663l.04.333c.009.113.018.217.024.334.005.109.01.218.011.331.001.113.003.227 0 .336-.003.109-.01.224-.017.337a7.569 7.569 0 0 1-.128.998c-.024.107-.043.218-.07.329-.023.107-.055.215-.086.322a3.304 3.304 0 0 1-.095.315c-.01.021-.013.042-.023.063-.066.183-.131.367-.206.543-.043.121-.098.238-.153.356a7.056 7.056 0 0 1-.086.181 2.463 2.463 0 0 1-.102.19c-.046.081-.084.16-.134.237a6.08 6.08 0 0 1-.174.293l-.162.243a7.657 7.657 0 0 1-.219.292 9.042 9.042 0 0 1-.261.324l-106.44 125.168z" class="color9996FA svgShape"/><path fill="#ffffff" d="M1073.674 511.274c-2.9 3.416-8.037 3.815-11.468.894l-95.005-80.788-.009-.007a9.576 9.576 0 0 1-.311-.28c-.092-.086-.18-.168-.265-.255l-.205-.219c-.054-.069-.117-.137-.175-.201a8.073 8.073 0 0 1-.828-1.183c-.056-.093-.11-.198-.162-.295a8.608 8.608 0 0 1-.418-.94 7.853 7.853 0 0 1-.285-.946c-.025-.111-.054-.219-.072-.33a4.566 4.566 0 0 1-.055-.324 9.605 9.605 0 0 1-.046-.308 9.304 9.304 0 0 1-.04-1.357c.007-.106.014-.22.025-.33.011-.11.026-.225.037-.335.019-.111.034-.217.054-.328l.025-.136c.015-.062.026-.128.04-.197.006-.025.008-.045.019-.066.02-.103.048-.206.076-.309.028-.104.06-.203.092-.303.028-.103.064-.199.1-.304.02-.05.036-.096.057-.146a7.637 7.637 0 0 1 .341-.779c.369.494.785.96 1.277 1.379l95.005 80.789c3.435 2.917 8.567 2.514 11.472-.899l106.433-125.166a7.88 7.88 0 0 0 1.047-1.583c.096.126.183.253.271.388.103.162.201.32.291.479.11.198.216.4.306.604.049.101.094.207.135.309.083.212.161.421.231.638.029.107.062.218.092.325.029.107.054.219.079.322.046.219.089.442.12.663l.04.333c.009.113.018.217.024.334.005.109.01.218.011.331.001.113.003.227 0 .336-.003.109-.01.224-.017.337a7.569 7.569 0 0 1-.128.998c-.024.107-.043.218-.07.329-.023.107-.055.215-.086.322a3.304 3.304 0 0 1-.095.315c-.01.021-.013.042-.023.063-.066.183-.131.367-.206.543-.043.121-.098.238-.153.356a7.056 7.056 0 0 1-.086.181 2.463 2.463 0 0 1-.102.19c-.046.081-.084.16-.134.237a6.08 6.08 0 0 1-.174.293l-.162.243a7.657 7.657 0 0 1-.219.292 9.042 9.042 0 0 1-.261.324l-106.44 125.167z" class="colorFFF svgShape"/><path fill="#ffffff" d="m1134.805 393.471-63.035-53.657a7.002 7.002 0 0 1-.793-9.871l8.64-10.149a7.002 7.002 0 0 1 9.871-.793l63.035 53.657a7.002 7.002 0 0 1 .793 9.871l-8.639 10.15a7.004 7.004 0 0 1-9.872.792zM1057.056 414.99l-38.061-32.296a2.821 2.821 0 1 1 3.652-4.304l38.061 32.297a2.823 2.823 0 0 1 .326 3.978v.001a2.823 2.823 0 0 1-3.978.324zM1045.404 428.677l-38.061-32.296a2.822 2.822 0 1 1 3.652-4.304l38.061 32.296a2.821 2.821 0 1 1-3.652 4.304z" class="colorFFF svgShape"/><path fill="#ffbc47" d="m1000.106 454.79-10.686 12.553-2.202-13.719-14.134-.186 10.685-12.554z" class="colorFFBC47 svgShape"/><path fill="#d94559" d="m1086.304 343.212 9.089-10.678 4.028 3.429c.82.698 1.386 1.366 1.698 2.004.312.638.417 1.301.315 1.989-.102.689-.361 1.278-.779 1.768a3.166 3.166 0 0 1-1.471.972c-.592.191-1.245.197-1.958.016.488.742.713 1.49.673 2.243-.04.754-.323 1.441-.853 2.063-.425.5-.928.875-1.505 1.124-.579.249-1.124.357-1.634.324-.511-.033-1.053-.19-1.626-.472s-1.2-.714-1.884-1.296l-4.093-3.486zm6.691-4.982 2.321 1.976c.63.536 1.116.88 1.46 1.03.452.201.875.255 1.269.163.394-.092.749-.324 1.068-.699.302-.354.482-.739.541-1.154a1.702 1.702 0 0 0-.262-1.176c-.233-.37-.735-.883-1.506-1.539l-2.146-1.827-2.745 3.226zm-4.198 4.931 2.673 2.276c.459.39.796.648 1.01.772.376.22.733.356 1.068.407.336.051.685.007 1.047-.132.363-.139.688-.379.978-.718.339-.398.531-.832.576-1.3a2.13 2.13 0 0 0-.326-1.345c-.262-.429-.735-.934-1.419-1.516l-2.483-2.113-3.124 3.669zM1100.361 346.21c1.509-1.773 3.169-2.753 4.979-2.941 1.811-.188 3.473.362 4.986 1.65.992.843 1.684 1.84 2.079 2.988a6.08 6.08 0 0 1 .143 3.52c-.3 1.198-.905 2.331-1.814 3.399-.921 1.083-1.966 1.865-3.132 2.345-1.167.48-2.34.598-3.52.351a7.035 7.035 0 0 1-3.169-1.56c-1.01-.86-1.707-1.872-2.089-3.035a6.165 6.165 0 0 1-.116-3.529 7.855 7.855 0 0 1 1.653-3.188zm1.446 1.268c-1.095 1.286-1.611 2.597-1.545 3.929.065 1.333.623 2.445 1.673 3.339 1.069.91 2.267 1.285 3.595 1.126 1.327-.16 2.576-.927 3.746-2.301.74-.87 1.239-1.754 1.495-2.653.256-.9.252-1.77-.013-2.611-.265-.841-.751-1.563-1.459-2.165-1.006-.856-2.164-1.249-3.474-1.18-1.311.07-2.65.909-4.018 2.516zM1112.027 356.14c1.509-1.773 3.168-2.753 4.979-2.941 1.81-.188 3.472.362 4.986 1.65.991.844 1.684 1.84 2.079 2.988a6.07 6.07 0 0 1 .143 3.52c-.3 1.198-.905 2.331-1.814 3.399-.921 1.082-1.966 1.865-3.132 2.345-1.167.481-2.341.598-3.52.352a7.037 7.037 0 0 1-3.168-1.56c-1.01-.86-1.707-1.872-2.089-3.035a6.156 6.156 0 0 1-.116-3.529 7.857 7.857 0 0 1 1.652-3.189zm1.446 1.268c-1.095 1.287-1.61 2.597-1.545 3.929.066 1.333.623 2.446 1.673 3.339 1.069.91 2.268 1.285 3.595 1.126 1.327-.16 2.577-.927 3.746-2.302.74-.869 1.238-1.753 1.494-2.653.256-.9.252-1.77-.013-2.611-.265-.841-.752-1.563-1.459-2.166-1.006-.856-2.164-1.249-3.474-1.179-1.31.072-2.649.91-4.017 2.517zM1119.64 371.589l9.089-10.677 1.421 1.209-4.507 5.295 9.839-.757 1.926 1.64-8.187.493-.704 10.353-1.875-1.596.777-8.659-3.208.208-3.149 3.7-1.422-1.209z" class="colorD94559 svgShape"/><path fill="#4c5070" d="M254.784 302.074a1.58 1.58 0 0 1-1.549-2.474l12.398-17.417a1.58 1.58 0 1 1 2.574 1.832l-12.398 17.417a1.577 1.577 0 0 1-1.025.642zM255.345 257.166l-12.167 2.048a1.58 1.58 0 1 1-.524-3.116l12.167-2.048a1.58 1.58 0 0 1 .524 3.116zM455.262 268.327a1.574 1.574 0 0 1-1.178-.271l-17.417-12.398a1.58 1.58 0 1 1 1.832-2.574l17.417 12.398a1.58 1.58 0 0 1-.654 2.845zM452.196 224.029l-12.167 2.048a1.579 1.579 0 1 1-.524-3.115l12.167-2.049a1.58 1.58 0 1 1 .524 3.116z" class="color4C5070 svgShape"/><path fill="#d3e3ff" d="M338.149 246.646c.874 5.194-.407 9.739-2.863 10.152-2.455.413-5.154-3.462-6.029-8.655-.874-5.194.408-9.739 2.863-10.152 2.456-.414 5.155 3.462 6.029 8.655zM354.918 243.823c.874 5.194 3.573 9.069 6.029 8.656 2.455-.413 3.737-4.959 2.863-10.152-.874-5.194-3.573-9.069-6.029-8.656-2.456.414-3.738 4.959-2.863 10.152z" class="colorD3E3FF svgShape"/><path fill="#4c5070" d="m330.383 239.787-1.922-2.048 4.144-3.888c3.08-2.889 6.821-4.773 10.821-5.446l1.98-.333c4.433-.746 8.991.003 13.181 2.168l3.614 1.867-1.289 2.495-3.614-1.867c-3.645-1.883-7.596-2.538-11.425-1.893l-1.979.333c-3.452.581-6.691 2.215-9.366 4.725l-4.145 3.887z" class="color4C5070 svgShape"/><path fill="#4c5070" d="m306.963 222.071-27.801 4.68c-17.09 2.877-28.612 19.063-25.735 36.153l1.286 7.639c3.137 18.641 20.793 31.208 39.433 28.07 25.272-4.254 42.31-28.19 38.056-53.462l-.978-5.81c-1.93-11.468-12.792-19.2-24.261-17.27z" class="color4C5070 svgShape"/><path fill="#d3e3ff" d="m305.204 227.441-24.009 4.042c-14.759 2.484-24.71 16.463-22.225 31.222l1.111 6.597c2.71 16.098 17.957 26.951 34.055 24.241 21.825-3.674 36.539-24.345 32.866-46.17l-.845-5.018c-1.668-9.904-11.049-16.582-20.953-14.914z" class="colorD3E3FF svgShape"/><path fill="#ffffff" d="M272.788 239.075c-5.454 4.125-8.536 10.791-9.071 17.525-.635 7.992 2.168 15.837 6.141 22.649.701 1.201 2.079 1.874 3.425 1.248 1.173-.545 1.953-2.216 1.249-3.425-3.424-5.871-6.142-12.569-5.718-19.492.345-5.646 2.702-11.087 7.278-14.548 2.646-2.002-.659-5.958-3.304-3.957zM278.731 282.699c-3.27.55-2.42 5.634.856 5.083 3.27-.551 2.42-5.634-.856-5.083z" class="colorFFF svgShape"/><path fill="#4c5070" d="m376.824 210.311 27.801-4.68c17.09-2.877 33.276 8.645 36.153 25.735l1.286 7.64c3.138 18.641-9.43 36.295-28.07 39.433-25.272 4.254-49.208-12.784-53.462-38.056l-.978-5.811c-1.93-11.468 5.802-22.33 17.27-24.261z" class="color4C5070 svgShape"/><path fill="#d3e3ff" d="m380.245 214.809 24.009-4.041c14.759-2.484 28.737 7.466 31.222 22.225l1.111 6.597c2.71 16.098-8.143 31.345-24.241 34.055-21.825 3.674-42.496-11.04-46.17-32.865l-.844-5.018c-1.669-9.905 5.009-19.286 14.913-20.953z" class="colorD3E3FF svgShape"/><path fill="#ffffff" d="M414.683 215.189c6.503 2.112 11.599 7.401 14.308 13.589 3.216 7.344 3.136 15.673 1.613 23.411-.269 1.365-1.351 2.451-2.827 2.301-1.287-.131-2.571-1.455-2.301-2.827 1.313-6.669 1.688-13.887-.979-20.29-2.175-5.222-6.183-9.591-11.64-11.364-3.156-1.025-1.328-5.845 1.826-4.82zM423.35 258.355c3.271-.551 4.131 4.531.855 5.082-3.27.551-4.131-4.53-.855-5.082zM1116.934 685.548c-3.076 18.022-11.587 33.774-23.571 45.867-18.986 19.14-46.701 29.051-75.317 24.167a82.86 82.86 0 0 1-7.531-1.645c-42.424-11.17-70.029-53.143-62.506-97.219 7.964-46.661 52.23-78.021 98.868-70.061 46.661 7.963 78.021 52.23 70.057 98.891z" class="colorFFF svgShape"/><path fill="#d8e0eb" d="M1093.363 731.415c-18.986 19.14-46.701 29.051-75.317 24.167a82.86 82.86 0 0 1-7.531-1.645l-8.155-80.683 68.555-24.003 22.448 82.164z" class="colorD8E0EB svgShape"/><path fill="#fffcff" d="m1088.878 720.708-51.04-36.844a2.24 2.24 0 0 1-.505-3.125l3.07-4.252a2.24 2.24 0 0 1 3.125-.505l51.04 36.844a2.24 2.24 0 0 1 .505 3.125l-3.07 4.252a2.238 2.238 0 0 1-3.125.505z" class="colorFFFCFF svgShape"/><circle cx="1032.471" cy="671.122" r="49.848" fill="#fffcff" class="colorFFFCFF svgShape"/><path fill="#61380c" d="M997.13 645.203a43.566 43.566 0 0 1 20.585-15.341c13.214-4.724 28.483-3.022 40.677 5.915 19.509 14.298 23.738 41.733 9.44 61.242-2.499 3.41-5.405 6.376-8.596 8.811-15.056 11.632-36.562 12.447-52.66.648-19.529-14.311-23.758-41.746-9.446-61.275z" class="color61380C svgShape"/><path fill="#94622d" d="M1017.715 629.863c13.214-4.724 28.483-3.022 40.677 5.915 19.509 14.298 23.738 41.733 9.44 61.242-2.499 3.41-5.405 6.376-8.596 8.811-4.212-5.4-7.446-12.017-8.302-18.56-.975-7.42 1.78-9.501-.236-16.221-3.292-11.052-12.875-12.481-22.976-23.193-5.943-6.318-7.172-10.675-10.007-17.994z" class="color94622D svgShape"/><circle cx="1012.307" cy="693.699" r="4.418" fill="#422303" class="color422303 svgShape"/><circle cx="1026.218" cy="701.014" r="6.856" fill="#422303" class="color422303 svgShape"/><circle cx="1040.854" cy="703.967" r="4.418" fill="#422303" class="color422303 svgShape"/><path fill="#3a67b3" d="m827.457 286.937-291.7-.505c-22.62-.039-40.989 18.266-41.028 40.886l-.118 67.845 373.614.647.118-67.845c.039-22.62-18.266-40.988-40.886-41.028z" class="color3A67B3 svgShape"/><path fill="#30334d" d="M917.927 353.876c.668 10.751-5.534 21.048-16.127 26.828l-12.186-.021c.648-4.146 1.161-8.775 1.489-13.848.189-3.1.286-6.401.292-9.824.006-3.342-.035-6.563-.212-9.583-.356-6.443-1.034-12.161-1.895-17.115l12.599.022c1.282.686 15.104 8.561 16.04 23.541z" class="color30334D svgShape"/><ellipse cx="865.627" cy="355.453" fill="#202238" rx="39.401" ry="7.869" transform="rotate(-89.811 865.648 355.44)" class="color202238 svgShape"/><path fill="#535675" d="M893.894 355.521a133.57 133.57 0 0 1-.232 7.816c-.261 4.036-.669 7.719-1.185 11.017-2.064 13.386-5.722 20.555-5.722 20.555l-21.104-.068v-.032c3.334-9.668 5.286-21.869 6.068-31.51.224-2.914.338-5.541.342-7.847a98.548 98.548 0 0 0-.278-7.592c-.677-9.643-2.587-22.011-5.85-31.786v-.032l21.104.069s3.16 6.316 5.18 18.171c.685 3.941 1.225 8.491 1.508 13.616.142 2.402.174 4.965.169 7.623z" class="color535675 svgShape"/><path fill="#666985" d="M893.894 355.521a133.57 133.57 0 0 1-.232 7.816l-21.942-.038c.224-2.914.338-5.541.342-7.847a98.548 98.548 0 0 0-.278-7.592l21.942.038c.141 2.402.173 4.965.168 7.623z" class="color666985 svgShape"/><path fill="#30334d" d="M445.056 353.057c-.705 10.749 5.461 21.067 16.034 26.883l12.186.021c-.634-4.148-1.13-8.779-1.441-13.853-.178-3.1-.264-6.402-.258-9.825.006-3.342.057-6.563.245-9.582.378-6.441 1.076-12.157 1.955-17.108l-12.599-.022c-1.285.682-15.135 8.509-16.122 23.486z" class="color30334D svgShape"/><ellipse cx="497.349" cy="354.815" fill="#202238" rx="7.869" ry="39.401" class="color202238 svgShape"/><path fill="#535675" d="M469.082 354.785c-.005 2.723.064 5.35.205 7.816.247 4.037.642 7.721 1.147 11.021 2.018 13.393 5.651 20.575 5.651 20.575l21.104.005v-.032c-3.301-9.68-5.21-21.887-5.959-31.53-.214-2.915-.319-5.542-.315-7.849.004-2.21.081-4.773.304-7.591.71-9.641 2.663-22.002 5.96-31.766v-.032l-21.104-.005s-3.181 6.305-5.243 18.153c-.699 3.939-1.254 8.487-1.555 13.611-.149 2.403-.19 4.966-.195 7.624z" class="color535675 svgShape"/><path fill="#666985" d="M469.082 354.785c-.005 2.723.064 5.35.205 7.816l21.942.038c-.214-2.915-.319-5.542-.315-7.849.004-2.21.081-4.773.304-7.591l-21.942-.038c-.148 2.403-.189 4.966-.194 7.624z" class="color666985 svgShape"/><path fill="#30334d" d="m497.5 317.69 366.996.623-.127 74.227-366.996-.623z" class="color30334D svgShape"/><path fill="#666985" d="m497.34 391.924.038-22.975 366.996.624-.039 22.975zM497.44 332.942l.015-8.395 366.996.624-.014 8.395zM497.404 354.149l.015-8.395 366.996.624-.015 8.395z" class="color666985 svgShape"/><path fill="#ffffff" d="m795.99 152.426-228.3-.395a4.019 4.019 0 0 0-4.026 4.012l-.492 284.057a4.02 4.02 0 0 0 4.012 4.026l182.121.315a4.013 4.013 0 0 0 2.843-1.172l46.259-46.087a4.017 4.017 0 0 0 1.182-2.84l.412-237.889a4.018 4.018 0 0 0-4.011-4.027z" class="colorFFF svgShape"/><path fill="#cad6e6" d="m799.587 396.006-48.618 48.437.084-48.521zM769.944 178.847l-181.343-.314a2.126 2.126 0 1 1 .007-4.254l181.343.314a2.126 2.126 0 0 1 2.123 2.13 2.125 2.125 0 0 1-2.13 2.124zM642.806 220.221l-54.277-.094a2.126 2.126 0 1 1 .007-4.254l54.277.094a2.127 2.127 0 0 1 2.123 2.131 2.125 2.125 0 0 1-2.13 2.123zM738.677 220.387l-84.094-.146a2.127 2.127 0 1 1 .008-4.254l84.094.146a2.127 2.127 0 1 1-.008 4.254zM678.806 198.305l-90.238-.156a2.126 2.126 0 1 1 .007-4.253l90.238.156a2.126 2.126 0 1 1-.007 4.253zM769.91 198.463l-69.481-.12a2.126 2.126 0 1 1 .007-4.253l69.481.12a2.126 2.126 0 1 1-.007 4.253zM770.148 220.442l-17.646-.031a1.851 1.851 0 0 1 .006-3.702l17.646.031a1.85 1.85 0 1 1-.006 3.702zM769.834 242.42l-181.343-.314a2.127 2.127 0 1 1 .008-4.254l181.343.314a2.127 2.127 0 0 1-.008 4.254zM642.696 283.793l-54.277-.094a2.126 2.126 0 1 1 .007-4.254l54.277.094a2.127 2.127 0 0 1 2.123 2.131 2.125 2.125 0 0 1-2.13 2.123zM738.567 283.96l-84.094-.146a2.127 2.127 0 1 1 .008-4.254l84.094.146a2.128 2.128 0 0 1-.008 4.254zM678.696 261.877l-90.238-.156a2.126 2.126 0 1 1 .007-4.253l90.238.156a2.126 2.126 0 1 1-.007 4.253zM769.8 262.035l-69.481-.12a2.126 2.126 0 1 1 .007-4.253l69.481.12a2.126 2.126 0 1 1-.007 4.253zM770.038 284.014l-17.646-.031a1.851 1.851 0 0 1 .006-3.702l17.646.031a1.85 1.85 0 1 1-.006 3.702zM769.724 305.992l-181.343-.314a2.126 2.126 0 1 1 .007-4.253l181.343.314a2.127 2.127 0 0 1 2.123 2.131 2.125 2.125 0 0 1-2.13 2.122zM642.586 347.366l-54.277-.094a2.126 2.126 0 1 1 .007-4.254l54.277.094a2.126 2.126 0 1 1-.007 4.254zM738.457 347.532l-84.094-.146a2.127 2.127 0 1 1 .008-4.254l84.094.146a2.126 2.126 0 0 1 2.123 2.13 2.129 2.129 0 0 1-2.131 2.124zM678.585 325.45l-90.238-.156a2.126 2.126 0 1 1 .007-4.254l90.238.156a2.127 2.127 0 0 1 2.123 2.131 2.126 2.126 0 0 1-2.13 2.123zM769.69 325.607l-69.481-.12a2.126 2.126 0 1 1 .007-4.254l69.481.12a2.127 2.127 0 0 1 2.123 2.131 2.125 2.125 0 0 1-2.13 2.123zM769.928 347.586l-17.646-.031a1.851 1.851 0 0 1 .006-3.702l17.646.031a1.85 1.85 0 1 1-.006 3.702zM769.614 369.564l-181.343-.314a2.126 2.126 0 1 1 .007-4.254l181.343.314a2.127 2.127 0 0 1 2.123 2.131 2.125 2.125 0 0 1-2.13 2.123zM642.476 410.938l-54.277-.094a2.126 2.126 0 1 1 .007-4.253l54.277.094a2.126 2.126 0 1 1-.007 4.253zM738.347 411.104l-84.094-.146a2.127 2.127 0 1 1 .008-4.253l84.094.146a2.126 2.126 0 0 1 2.123 2.13 2.128 2.128 0 0 1-2.131 2.123zM678.475 389.022l-90.238-.156a2.126 2.126 0 1 1 .007-4.254l90.238.156a2.126 2.126 0 1 1-.007 4.254zM769.58 389.18l-69.481-.12a2.126 2.126 0 1 1 .007-4.254l69.481.12a2.127 2.127 0 0 1 2.123 2.131 2.126 2.126 0 0 1-2.13 2.123z" class="colorCAD6E6 svgShape"/><path fill="#cad6e6" d="m769.818 411.159-17.646-.031a1.851 1.851 0 0 1 .006-3.702l17.646.031a1.852 1.852 0 0 1-.006 3.702z" class="colorCAD6E6 svgShape"/><path fill="#3a67b3" d="M904.749 482.196h.269l.121-70.056c.018-10.225-8.257-18.529-18.483-18.547l-410.468-.711c-10.225-.018-18.529 8.257-18.547 18.483l-.121 70.056h.269a48.974 48.974 0 0 0-.395 6.031l-.284 164.178c-.047 26.92 21.739 48.781 48.659 48.828l350.243.607c26.92.047 48.781-21.739 48.828-48.659l.284-164.177a49.241 49.241 0 0 0-.375-6.033z" class="color3A67B3 svgShape"/><path fill="#cccccc" d="m852.118 641.301-342.251-.593c-19.101-.033-34.559-15.544-34.526-34.646l.198-114.582c.033-19.101 15.544-34.559 34.646-34.526l342.251.593c19.101.033 34.559 15.544 34.526 34.646l-.198 114.582c-.033 19.101-15.545 34.559-34.646 34.526z" class="colorCCC svgShape"/><path fill="#cccccc" d="m852.403 457.548-342.184-.593c-19.12-.033-34.646 15.439-34.679 34.559l-.025 14.387c.033-19.119 15.559-34.592 34.679-34.559l342.184.593c19.12.033 34.592 15.559 34.559 34.679l.025-14.387c.034-19.12-15.439-34.646-34.559-34.679z" class="colorCCC svgShape"/><path fill="#ffffff" d="M514.849 481.714h.002c9.34.016 16.899 7.601 16.883 16.941v.002c-.016 9.34-7.601 16.899-16.941 16.883h-.002c-9.34-.016-16.899-7.601-16.883-16.941v-.002c.015-9.34 7.6-16.899 16.941-16.883z" class="colorFFF svgShape"/><path fill="#d8e0eb" d="M531.735 498.654a16.84 16.84 0 0 1-4.977 11.954c-3.073 3.051-7.301 4.944-11.971 4.936a16.851 16.851 0 0 1-11.943-4.977 17.352 17.352 0 0 1-1.483-1.701 16.827 16.827 0 0 0 10.248 3.489c4.67.008 8.898-1.884 11.971-4.936s4.969-7.284 4.977-11.954a16.832 16.832 0 0 0-3.453-10.27c4.038 3.105 6.641 7.982 6.631 13.459z" class="colorD8E0EB svgShape"/><path fill="#ffffff" d="M556.453 481.786h.002c9.34.016 16.899 7.601 16.883 16.941v.002c-.016 9.34-7.601 16.899-16.941 16.883h-.002c-9.34-.016-16.899-7.601-16.883-16.941v-.002c.016-9.34 7.601-16.899 16.941-16.883z" class="colorFFF svgShape"/><path fill="#d8e0eb" d="M573.34 498.726a16.838 16.838 0 0 1-4.977 11.954c-3.073 3.051-7.301 4.944-11.971 4.936a16.851 16.851 0 0 1-11.943-4.977 17.352 17.352 0 0 1-1.483-1.701 16.827 16.827 0 0 0 10.248 3.489c4.67.008 8.898-1.884 11.971-4.936a16.835 16.835 0 0 0 4.977-11.954 16.832 16.832 0 0 0-3.453-10.27c4.037 3.105 6.64 7.982 6.631 13.459z" class="colorD8E0EB svgShape"/><path fill="#ffffff" d="M598.058 481.858h.002c9.34.016 16.899 7.601 16.883 16.941v.002c-.016 9.34-7.601 16.899-16.941 16.883H598c-9.34-.016-16.899-7.601-16.883-16.941v-.002c.015-9.34 7.6-16.899 16.941-16.883z" class="colorFFF svgShape"/><path fill="#d8e0eb" d="M614.944 498.798a16.838 16.838 0 0 1-4.977 11.954c-3.073 3.051-7.301 4.944-11.971 4.936a16.851 16.851 0 0 1-11.943-4.977 17.352 17.352 0 0 1-1.483-1.701 16.827 16.827 0 0 0 10.248 3.489c4.67.008 8.898-1.884 11.971-4.936a16.835 16.835 0 0 0 4.977-11.954 16.832 16.832 0 0 0-3.453-10.27c4.038 3.105 6.64 7.982 6.631 13.459z" class="colorD8E0EB svgShape"/><path fill="#ffffff" d="M639.662 481.93h.002c9.34.016 16.899 7.601 16.883 16.941v.002c-.016 9.34-7.601 16.899-16.941 16.883h-.002c-9.34-.016-16.899-7.601-16.883-16.941v-.002c.016-9.34 7.601-16.899 16.941-16.883z" class="colorFFF svgShape"/><path fill="#d8e0eb" d="M656.548 498.87a16.84 16.84 0 0 1-4.977 11.954c-3.073 3.051-7.301 4.944-11.971 4.936a16.851 16.851 0 0 1-11.943-4.977 17.352 17.352 0 0 1-1.483-1.701 16.827 16.827 0 0 0 10.248 3.489c4.67.008 8.898-1.884 11.971-4.936a16.835 16.835 0 0 0 4.977-11.954 16.832 16.832 0 0 0-3.453-10.27c4.038 3.106 6.641 7.982 6.631 13.459z" class="colorD8E0EB svgShape"/><path fill="#ffffff" d="M681.266 482.002h.002c9.34.016 16.899 7.601 16.883 16.941v.002c-.016 9.34-7.601 16.899-16.941 16.883h-.002c-9.34-.016-16.899-7.601-16.883-16.941v-.002c.016-9.34 7.601-16.899 16.941-16.883z" class="colorFFF svgShape"/><path fill="#d8e0eb" d="M698.153 498.942a16.838 16.838 0 0 1-4.977 11.954c-3.073 3.051-7.301 4.944-11.971 4.936a16.851 16.851 0 0 1-11.943-4.977 17.352 17.352 0 0 1-1.483-1.701 16.827 16.827 0 0 0 10.248 3.489c4.67.008 8.898-1.884 11.971-4.936a16.835 16.835 0 0 0 4.977-11.954 16.83 16.83 0 0 0-3.453-10.27c4.038 3.106 6.64 7.982 6.631 13.459z" class="colorD8E0EB svgShape"/><path fill="#ffffff" d="M722.871 482.074h.002c9.34.016 16.899 7.601 16.883 16.941v.002c-.016 9.34-7.601 16.899-16.941 16.883h-.002c-9.34-.016-16.899-7.601-16.883-16.941v-.002c.016-9.34 7.601-16.899 16.941-16.883z" class="colorFFF svgShape"/><path fill="#d8e0eb" d="M739.757 499.014a16.838 16.838 0 0 1-4.977 11.954c-3.073 3.051-7.301 4.944-11.971 4.936a16.851 16.851 0 0 1-11.943-4.977 17.352 17.352 0 0 1-1.483-1.701 16.827 16.827 0 0 0 10.248 3.489c4.67.008 8.898-1.884 11.971-4.936a16.835 16.835 0 0 0 4.977-11.954 16.832 16.832 0 0 0-3.453-10.27c4.038 3.106 6.641 7.982 6.631 13.459z" class="colorD8E0EB svgShape"/><path fill="#ffffff" d="M764.475 482.146h.002c9.34.016 16.899 7.601 16.883 16.941v.002c-.016 9.34-7.601 16.899-16.941 16.883h-.002c-9.34-.016-16.899-7.601-16.883-16.941v-.002c.016-9.34 7.601-16.899 16.941-16.883z" class="colorFFF svgShape"/><path fill="#d8e0eb" d="M781.362 499.086a16.84 16.84 0 0 1-4.977 11.954c-3.073 3.051-7.301 4.944-11.971 4.936a16.851 16.851 0 0 1-11.943-4.977 17.352 17.352 0 0 1-1.483-1.701 16.827 16.827 0 0 0 10.248 3.489c4.67.008 8.898-1.884 11.971-4.936a16.835 16.835 0 0 0 4.977-11.954 16.832 16.832 0 0 0-3.453-10.27c4.038 3.106 6.64 7.982 6.631 13.459z" class="colorD8E0EB svgShape"/><path fill="#ffffff" d="M806.08 482.218h.002c9.34.016 16.899 7.601 16.883 16.941v.002c-.016 9.34-7.601 16.899-16.941 16.883h-.002c-9.34-.016-16.899-7.601-16.883-16.941v-.002c.016-9.34 7.601-16.899 16.941-16.883z" class="colorFFF svgShape"/><path fill="#d8e0eb" d="M822.966 499.158a16.838 16.838 0 0 1-4.977 11.954c-3.073 3.051-7.301 4.944-11.971 4.936a16.851 16.851 0 0 1-11.943-4.977 17.352 17.352 0 0 1-1.483-1.701 16.827 16.827 0 0 0 10.248 3.489c4.67.008 8.898-1.884 11.971-4.936a16.835 16.835 0 0 0 4.977-11.954 16.83 16.83 0 0 0-3.453-10.27c4.038 3.106 6.641 7.982 6.631 13.459z" class="colorD8E0EB svgShape"/><path fill="#ffffff" d="M847.684 482.29h.002c9.34.016 16.899 7.601 16.883 16.941v.002c-.016 9.34-7.601 16.899-16.941 16.883h-.002c-9.34-.016-16.899-7.601-16.883-16.941v-.002c.016-9.34 7.601-16.899 16.941-16.883z" class="colorFFF svgShape"/><path fill="#d8e0eb" d="M864.571 499.23a16.838 16.838 0 0 1-4.977 11.954c-3.073 3.051-7.301 4.944-11.971 4.936a16.851 16.851 0 0 1-11.943-4.977 17.352 17.352 0 0 1-1.483-1.701 16.827 16.827 0 0 0 10.248 3.489c4.67.008 8.898-1.884 11.971-4.936a16.835 16.835 0 0 0 4.977-11.954 16.832 16.832 0 0 0-3.453-10.27c4.038 3.106 6.64 7.982 6.631 13.459z" class="colorD8E0EB svgShape"/><path fill="#ffffff" d="M556.377 525.702h.002c9.34.016 16.899 7.601 16.883 16.941v.002c-.016 9.34-7.601 16.899-16.941 16.883h-.002c-9.34-.016-16.899-7.601-16.883-16.941v-.002c.016-9.34 7.601-16.9 16.941-16.883z" class="colorFFF svgShape"/><path fill="#d8e0eb" d="M573.263 542.642a16.838 16.838 0 0 1-4.977 11.954c-3.073 3.051-7.301 4.944-11.971 4.936a16.851 16.851 0 0 1-11.943-4.977 17.352 17.352 0 0 1-1.483-1.701 16.827 16.827 0 0 0 10.248 3.489c4.67.008 8.898-1.884 11.971-4.936a16.835 16.835 0 0 0 4.977-11.954 16.83 16.83 0 0 0-3.453-10.27c4.038 3.105 6.641 7.982 6.631 13.459z" class="colorD8E0EB svgShape"/><path fill="#ffffff" d="M597.981 525.774h.002c9.34.016 16.899 7.601 16.883 16.941v.002c-.016 9.34-7.601 16.899-16.941 16.883h-.002c-9.34-.016-16.899-7.601-16.883-16.941v-.002c.016-9.34 7.601-16.899 16.941-16.883z" class="colorFFF svgShape"/><path fill="#d8e0eb" d="M614.868 542.714a16.84 16.84 0 0 1-4.977 11.954c-3.073 3.051-7.301 4.944-11.971 4.936a16.851 16.851 0 0 1-11.943-4.977 17.352 17.352 0 0 1-1.483-1.701 16.827 16.827 0 0 0 10.248 3.489c4.67.008 8.898-1.884 11.971-4.936a16.835 16.835 0 0 0 4.977-11.954 16.828 16.828 0 0 0-3.453-10.27c4.038 3.105 6.64 7.982 6.631 13.459z" class="colorD8E0EB svgShape"/><path fill="#ffffff" d="M639.586 525.846h.002c9.34.016 16.899 7.601 16.883 16.941v.002c-.016 9.34-7.601 16.899-16.941 16.883h-.002c-9.34-.016-16.899-7.601-16.883-16.941v-.002c.016-9.34 7.601-16.899 16.941-16.883z" class="colorFFF svgShape"/><path fill="#d8e0eb" d="M656.472 542.786a16.838 16.838 0 0 1-4.977 11.954c-3.073 3.051-7.301 4.944-11.971 4.936a16.851 16.851 0 0 1-11.943-4.977 17.352 17.352 0 0 1-1.483-1.701 16.827 16.827 0 0 0 10.248 3.489c4.67.008 8.898-1.884 11.971-4.936a16.835 16.835 0 0 0 4.977-11.954 16.828 16.828 0 0 0-3.453-10.27c4.038 3.105 6.641 7.982 6.631 13.459z" class="colorD8E0EB svgShape"/><path fill="#ffffff" d="M681.19 525.918h.002c9.34.016 16.899 7.601 16.883 16.941v.002c-.016 9.34-7.601 16.899-16.941 16.883h-.002c-9.34-.016-16.899-7.601-16.883-16.941v-.002c.016-9.34 7.601-16.899 16.941-16.883z" class="colorFFF svgShape"/><path fill="#d8e0eb" d="M698.077 542.858a16.838 16.838 0 0 1-4.977 11.954c-3.073 3.051-7.301 4.944-11.971 4.936a16.851 16.851 0 0 1-11.943-4.977 17.352 17.352 0 0 1-1.483-1.701 16.827 16.827 0 0 0 10.248 3.489c4.67.008 8.898-1.884 11.971-4.936a16.835 16.835 0 0 0 4.977-11.954 16.832 16.832 0 0 0-3.453-10.27c4.038 3.105 6.64 7.982 6.631 13.459z" class="colorD8E0EB svgShape"/><path fill="#ffffff" d="M722.795 525.99h.002c9.34.016 16.899 7.601 16.883 16.941v.002c-.016 9.34-7.601 16.899-16.941 16.883h-.002c-9.34-.016-16.899-7.601-16.883-16.941v-.002c.016-9.34 7.601-16.899 16.941-16.883z" class="colorFFF svgShape"/><path fill="#d8e0eb" d="M739.681 542.93a16.838 16.838 0 0 1-4.977 11.954c-3.073 3.051-7.301 4.944-11.971 4.936a16.851 16.851 0 0 1-11.943-4.977 17.352 17.352 0 0 1-1.483-1.701 16.827 16.827 0 0 0 10.248 3.489c4.67.008 8.898-1.884 11.971-4.936a16.835 16.835 0 0 0 4.977-11.954 16.832 16.832 0 0 0-3.453-10.27c4.038 3.106 6.641 7.982 6.631 13.459z" class="colorD8E0EB svgShape"/><path fill="#ffffff" d="M764.399 526.062h.002c9.34.016 16.899 7.601 16.883 16.941v.002c-.016 9.34-7.601 16.899-16.941 16.883h-.002c-9.34-.016-16.899-7.601-16.883-16.941v-.002c.016-9.34 7.601-16.899 16.941-16.883z" class="colorFFF svgShape"/><path fill="#d8e0eb" d="M781.286 543.002a16.838 16.838 0 0 1-4.977 11.954c-3.073 3.051-7.301 4.944-11.971 4.936a16.851 16.851 0 0 1-11.943-4.977 17.352 17.352 0 0 1-1.483-1.701 16.827 16.827 0 0 0 10.248 3.489c4.67.008 8.898-1.884 11.971-4.936a16.835 16.835 0 0 0 4.977-11.954 16.83 16.83 0 0 0-3.453-10.27c4.038 3.106 6.64 7.982 6.631 13.459z" class="colorD8E0EB svgShape"/><path fill="#ffffff" d="M806.004 526.134h.002c9.34.016 16.899 7.601 16.883 16.941v.002c-.016 9.34-7.601 16.899-16.941 16.883h-.002c-9.34-.016-16.899-7.601-16.883-16.941v-.002c.016-9.34 7.601-16.899 16.941-16.883z" class="colorFFF svgShape"/><path fill="#d8e0eb" d="M822.89 543.074a16.838 16.838 0 0 1-4.977 11.954c-3.073 3.051-7.301 4.944-11.971 4.936a16.851 16.851 0 0 1-11.943-4.977 17.352 17.352 0 0 1-1.483-1.701 16.827 16.827 0 0 0 10.248 3.489c4.67.008 8.898-1.884 11.971-4.936s4.969-7.284 4.977-11.954a16.83 16.83 0 0 0-3.453-10.27c4.038 3.106 6.641 7.982 6.631 13.459z" class="colorD8E0EB svgShape"/><path fill="#ffffff" d="M597.905 569.69h.002c9.34.016 16.899 7.601 16.883 16.941v.002c-.016 9.34-7.601 16.899-16.941 16.883h-.002c-9.34-.016-16.899-7.601-16.883-16.941v-.002c.016-9.341 7.601-16.9 16.941-16.883z" class="colorFFF svgShape"/><path fill="#d8e0eb" d="M614.792 586.63a16.838 16.838 0 0 1-4.977 11.954c-3.073 3.051-7.301 4.944-11.971 4.936a16.851 16.851 0 0 1-11.943-4.977 17.352 17.352 0 0 1-1.483-1.701 16.827 16.827 0 0 0 10.248 3.489c4.67.008 8.898-1.884 11.971-4.936a16.835 16.835 0 0 0 4.977-11.954 16.83 16.83 0 0 0-3.453-10.27c4.038 3.105 6.64 7.981 6.631 13.459z" class="colorD8E0EB svgShape"/><path fill="#ffffff" d="M639.51 569.762h.002c9.34.016 16.899 7.601 16.883 16.941v.002c-.016 9.34-7.601 16.899-16.941 16.883h-.002c-9.34-.016-16.899-7.601-16.883-16.941v-.002c.016-9.341 7.601-16.9 16.941-16.883z" class="colorFFF svgShape"/><path fill="#d8e0eb" d="M656.396 586.702a16.84 16.84 0 0 1-4.977 11.954c-3.073 3.051-7.301 4.944-11.971 4.936a16.851 16.851 0 0 1-11.943-4.977 17.352 17.352 0 0 1-1.483-1.701 16.827 16.827 0 0 0 10.248 3.489c4.67.008 8.898-1.884 11.971-4.936a16.835 16.835 0 0 0 4.977-11.954 16.828 16.828 0 0 0-3.453-10.27c4.038 3.105 6.641 7.982 6.631 13.459z" class="colorD8E0EB svgShape"/><path fill="#ffffff" d="M681.114 569.834h.002c9.34.016 16.899 7.601 16.883 16.941v.002c-.016 9.34-7.601 16.899-16.941 16.883h-.002c-9.34-.016-16.899-7.601-16.883-16.941v-.002c.016-9.34 7.601-16.899 16.941-16.883z" class="colorFFF svgShape"/><path fill="#d8e0eb" d="M698.001 586.774a16.838 16.838 0 0 1-4.977 11.954c-3.073 3.051-7.301 4.944-11.971 4.936a16.851 16.851 0 0 1-11.943-4.977 17.352 17.352 0 0 1-1.483-1.701 16.827 16.827 0 0 0 10.248 3.489c4.67.008 8.898-1.884 11.971-4.936a16.835 16.835 0 0 0 4.977-11.954 16.832 16.832 0 0 0-3.453-10.27c4.038 3.105 6.64 7.982 6.631 13.459z" class="colorD8E0EB svgShape"/><path fill="#ffffff" d="M722.719 569.906h.002c9.34.016 16.899 7.601 16.883 16.941v.002c-.016 9.34-7.601 16.899-16.941 16.883h-.002c-9.34-.016-16.899-7.601-16.883-16.941v-.002c.016-9.34 7.601-16.899 16.941-16.883z" class="colorFFF svgShape"/><path fill="#d8e0eb" d="M739.605 586.846a16.838 16.838 0 0 1-4.977 11.954c-3.073 3.051-7.301 4.944-11.971 4.936a16.851 16.851 0 0 1-11.943-4.977 17.352 17.352 0 0 1-1.483-1.701 16.827 16.827 0 0 0 10.248 3.489c4.67.008 8.898-1.884 11.971-4.936a16.835 16.835 0 0 0 4.977-11.954 16.832 16.832 0 0 0-3.453-10.27c4.038 3.105 6.641 7.982 6.631 13.459z" class="colorD8E0EB svgShape"/><path fill="#ffffff" d="M764.323 569.978h.002c9.34.016 16.899 7.601 16.883 16.941v.002c-.016 9.34-7.601 16.899-16.941 16.883h-.002c-9.34-.016-16.899-7.601-16.883-16.941v-.002c.016-9.34 7.601-16.899 16.941-16.883z" class="colorFFF svgShape"/><path fill="#d8e0eb" d="M781.21 586.918a16.838 16.838 0 0 1-4.977 11.954c-3.073 3.051-7.301 4.944-11.971 4.936a16.851 16.851 0 0 1-11.943-4.977 17.352 17.352 0 0 1-1.483-1.701 16.827 16.827 0 0 0 10.248 3.489c4.67.008 8.898-1.884 11.971-4.936a16.835 16.835 0 0 0 4.977-11.954 16.832 16.832 0 0 0-3.453-10.27c4.038 3.105 6.64 7.982 6.631 13.459z" class="colorD8E0EB svgShape"/><path fill="#ffffff" d="m804.705 609.919-247.315-.428c-6.383-.011-11.566 5.154-11.577 11.537-.011 6.383 5.154 11.566 11.537 11.577l247.316.428c6.382.011 11.566-5.154 11.577-11.537.01-6.383-5.155-11.566-11.538-11.577z" class="colorFFF svgShape"/><path fill="#d8e0eb" d="M810.409 611.444a11.484 11.484 0 0 1 1.506 5.71c-.011 6.383-5.194 11.548-11.577 11.537l-247.315-.428a11.493 11.493 0 0 1-5.705-1.526c1.983 3.494 5.726 5.859 10.031 5.867l247.316.428c6.383.011 11.566-5.154 11.577-11.537.007-4.304-2.345-8.056-5.833-10.051z" class="colorD8E0EB svgShape"/><path fill="#cccccc" d="m603.983 640.964 154.062.262-.073 43.461-154.062-.262z" class="colorCCC svgShape"/><path fill="#cccccc" d="m752.6 647.825-.051 30.332-143.196-.244.051-30.332z" class="colorCCC svgShape"/><path fill="#cad6e6" d="m212.459 514.512 126.306-53.236 75.47 179.057L287.93 693.57z" class="colorCAD6E6 svgShape"/><path fill="#ffffff" d="m408.284 638.594-126.306 53.237-75.47-179.058 126.306-53.236z" class="colorFFF svgShape"/><path fill="#cad6e6" d="m293.19 556.805 54.835-23.114a1.079 1.079 0 1 0-.838-1.989l-54.835 23.114a1.078 1.078 0 1 0 .838 1.989zM300.418 573.953l54.835-23.114a1.079 1.079 0 1 0-.839-1.989l-54.835 23.114a1.079 1.079 0 1 0 .839 1.989zM307.646 591.1l54.835-23.114a1.079 1.079 0 1 0-.839-1.99l-54.835 23.114a1.079 1.079 0 1 0 .839 1.99z" class="colorCAD6E6 svgShape"/><path fill="#cad6e6" d="m143.636 535.255 112.27-79.623 112.878 159.16-112.271 79.623z" class="colorCAD6E6 svgShape"/><path fill="#ffffff" d="m137.735 533.392 112.27-79.623 112.878 159.16-112.27 79.624z" class="colorFFF svgShape"/><path fill="#cad6e6" d="m236.889 502.936-47.99 34.034a1.08 1.08 0 0 1-1.249-1.761l47.99-34.034a1.08 1.08 0 0 1 1.249 1.761zM266.212 496.697l-89.375 63.385a1.078 1.078 0 1 1-1.249-1.761l89.375-63.385a1.08 1.08 0 0 1 1.249 1.761zM274.33 508.144l-89.375 63.385a1.079 1.079 0 1 1-1.249-1.762l89.375-63.385a1.08 1.08 0 1 1 1.249 1.762zM282.449 519.592l-89.375 63.385a1.079 1.079 0 1 1-1.249-1.762L281.2 517.83a1.08 1.08 0 1 1 1.249 1.762zM217.038 581.935l116.64-38.507 44.971 136.22-116.64 38.508z" class="colorCAD6E6 svgShape"/><path fill="#ffffff" d="m213.767 580.244 116.639-38.507 44.972 136.22-116.64 38.508z" class="colorFFF svgShape"/><path fill="#cad6e6" d="m326.659 573.283-91.078 30.069a.797.797 0 1 1-.499-1.513l91.078-30.069a.797.797 0 1 1 .499 1.513zM330.812 585.864l-91.078 30.069a.797.797 0 0 1-.5-1.513l91.078-30.069a.797.797 0 0 1 .5 1.513zM334.966 598.446l-91.078 30.069a.796.796 0 1 1-.499-1.514l91.078-30.069a.797.797 0 1 1 .499 1.514zM339.12 611.027l-91.078 30.069a.797.797 0 0 1-.5-1.513l91.078-30.069a.797.797 0 0 1 .5 1.513zM343.273 623.608l-91.078 30.069a.796.796 0 1 1-.499-1.514l91.078-30.069a.797.797 0 1 1 .499 1.514zM347.427 636.19l-91.078 30.069a.797.797 0 0 1-.5-1.513l91.078-30.069a.797.797 0 0 1 .5 1.513z" class="colorCAD6E6 svgShape"/><path fill="#ffe0d1" d="m324.267 658.041-7.405 8.962-5.855 7.083-.153-9.023-.198-11.789z" class="colorFFE0D1 svgShape"/><path fill="#f7bd5a" d="m329.76 642.434-5.432 15.507c-.296.845-1.303 1.26-2.245.93-.942-.33-1.47-1.282-1.174-2.127-.296.845-1.297 1.262-2.239.932-.942-.33-1.47-1.282-1.174-2.127-.296.846-1.297 1.262-2.239.932-.942-.33-1.47-1.282-1.174-2.127-.296.846-1.298 1.262-2.24.932-.942-.33-1.47-1.282-1.174-2.127l5.431-15.507c.025-.071.059-.132.094-.198l51.982-148.411 13.611 4.767-51.982 148.411c-.014.071-.021.142-.045.213z" class="colorF7BD5A svgShape"/><path fill="#30334d" d="m364.403 499.892 2.468-7.046 13.61 4.768-2.468 7.046z" class="color30334D svgShape"/><path fill="#d94559" d="m380.08 498.687-13.611-4.767 3.414-9.747a2.881 2.881 0 0 1 3.672-1.767l8.172 2.862a2.881 2.881 0 0 1 1.767 3.672l-3.414 9.747z" class="colorD94559 svgShape"/><path fill="#30334d" d="m316.862 667.003-5.855 7.083-.152-9.023a8.022 8.022 0 0 1 3.392.421c.99.348 1.87.869 2.615 1.519z" class="color30334D svgShape"/><path fill="#3a67b3" d="m1109.099 538.758 78.355-97.197 9.406 7.583-78.355 97.197a4.027 4.027 0 0 1-5.663.608l-3.135-2.528a4.029 4.029 0 0 1-.608-5.663zM1201.763 433.438l-4.902 15.706-9.406-7.583z" class="color3A67B3 svgShape"/><path fill="#ffbc47" d="m1116.682 529.352-1.517 1.881 10.66 8.594 1.881 1.517 20.979-26.024a1.205 1.205 0 0 0-1.58-1.778c-.017-.017-.03-.037-.048-.053-.346-.279-.967-.084-1.385.435-.419.519-.477 1.167-.131 1.446l-18.199 22.575-10.66-8.593zM1162.157 472.945l25.275-31.352 9.406 7.582-25.275 31.353zM1157.681 478.522l2.022-2.508 9.407 7.582-2.022 2.51zM1111.09 536.261l2.021-2.508 9.406 7.583-2.022 2.508z" class="colorFFBC47 svgShape"/><path fill="#d6e8ff" d="M1252.158 253.474c-15.974-28.756-41.381-51.944-71.243-65.67-32.35-14.87-67.142-17.199-102.048-11.947-38.336 5.768-75.039 18.997-113.115 26.029-45.616 8.424-91.869 7.305-138.009 9.093-3.503.135-3.5 5.283 0 5.44 38.433 1.727 77.305 1.263 115.522-3.472 37.1-4.597 72.545-15.724 108.872-24.006 34.838-7.942 71.08-12.08 105.813-1.38 30.757 9.476 58.654 29.309 77.261 55.626 10.8 15.275 18.633 32.533 23.163 50.677 4.642 18.593 4.885 37.487 4.033 56.525-.186 4.166 6.444 5.132 7.335.993 7.027-32.647-1.568-69.077-17.584-97.908zM1231.517 655.82c-10.205 19.313-19.657 38.877-31.162 57.489-11.445 18.514-24.43 36.083-39.214 52.074-27.18 29.4-60.324 52.41-97.061 68.257-72.665 31.345-156.088 35.035-232.704 17.471-48.916-11.214-96.355-36.061-147.718-31.662-2.864.245-2.92 4.716 0 4.518 48.149-3.259 92.667 19.355 138.245 31.027 38.77 9.929 79.068 14.37 119.069 12.802 79.456-3.116 158.495-30.756 215.88-87.144 17.389-17.086 32.592-36.355 45.851-56.79 13.361-20.594 25.516-42.78 33.787-65.944 1.035-2.906-3.541-4.808-4.973-2.098zM518.848 836.89c-18.585-.639-37.586 3.138-54.905 9.784-17.819 6.838-33.743 17.384-50.491 26.366-33.044 17.72-69.388 30.841-107.034 33.378-35.5 2.392-72.506-4.546-102.869-23.666-30.517-19.219-53.629-50.111-71.003-81.228-19.9-35.641-31.069-74.688-35.593-115.129-.361-3.224-5.349-3.379-5.163 0 1.969 35.811 12.003 71.167 27.199 103.559 15.465 32.964 37.206 64.441 65.251 87.956 59.075 49.533 140.984 44.109 207.847 14.657 20.49-9.025 39.138-21.129 58.987-31.348 21.364-10.998 43.874-15.766 67.773-16.492 5.045-.153 5.048-7.663.001-7.837zM537.975 122.945c-17.344-3.866-29.128-19.312-42.605-29.762-14.325-11.107-30.332-19.673-46.997-26.723-34.281-14.502-73.16-22.939-110.468-21.193-68.076 3.187-131.095 41.571-165.781 100.019-11.683 19.686-21.912 40.757-30.75 61.868-4.24 10.127-7.906 20.497-12.237 30.61-4.698 10.97-9.398 21.907-13.675 33.054-1.122 2.924 3.637 4.248 4.712 1.299 7.024-19.257 13.53-39.218 23.442-57.225 9.389-17.057 17.031-35.063 26.396-52.162 16.834-30.737 39.032-56.89 68.577-76.065 27.466-17.826 59.37-29.13 92.072-31.645 35.954-2.765 73.29 4.812 106.725 17.904 18.785 7.355 36.505 17.531 52.265 30.146 14.197 11.363 26.837 26.406 45.478 30.19 6.702 1.358 9.598-8.81 2.846-10.315z" class="colorD6E8FF svgShape"/></svg>